HIERARCHY
ROOT ROOT
{
	OFFSET 0.000000 56.020000 -5.659234
	CHANNELS 6 Xposition Yposition Zposition Xrotation Yrotation Zrotation 
	JOINT C_spine0001_bind_JNT
	{
		OFFSET 0.000000 1.618999 0.000000
		CHANNELS 3 Xrotation Yrotation Zrotation
		JOINT C_spine0002_bind_JNT
		{
			OFFSET 0.000000 4.942001 0.000001
			CHANNELS 3 Xrotation Yrotation Zrotation
			JOINT C_spine0003_bind_JNT
			{
				OFFSET 0.000000 4.942001 -0.000000
				CHANNELS 3 Xrotation Yrotation Zrotation
				JOINT C_neck0001_bind_JNT
				{
					OFFSET 0.000000 17.026009 -0.000000
					CHANNELS 3 Xrotation Yrotation Zrotation
					JOINT C_neck0002_bind_JNT
					{
						OFFSET 0.000000 3.249985 0.000000
						CHANNELS 3 Xrotation Yrotation Zrotation
						JOINT C_head_bind_JNT
						{
							OFFSET 0.000000 5.278008 0.000000
							CHANNELS 3 Xrotation Yrotation Zrotation
							End Site
							{
								OFFSET 0.000000 0.000000 0.000000
							}
						}
					}
				}
				JOINT L_clavicle_bind_JNT
				{
					OFFSET 4.590000 12.067001 0.834000
					CHANNELS 3 Xrotation Yrotation Zrotation
					JOINT L_armUpper0001_bind_JNT
					{
						OFFSET 7.812635 0.512001 -3.452945
						CHANNELS 3 Xrotation Yrotation Zrotation
						JOINT L_armLower0001_bind_JNT
						{
							OFFSET 15.265892 -6.552116 -0.058157
							CHANNELS 3 Xrotation Yrotation Zrotation
							JOINT L_hand0001_bind_JNT
							{
								OFFSET 14.747667 -6.369995 5.049225
								CHANNELS 3 Xrotation Yrotation Zrotation
								End Site
								{
									OFFSET 0.000000 0.000000 0.000000
								}
							}
						}
					}
				}
				JOINT R_clavicle_bind_JNT
				{
					OFFSET -4.590000 12.067001 0.834000
					CHANNELS 3 Xrotation Yrotation Zrotation
					JOINT R_armUpper0001_bind_JNT
					{
						OFFSET -7.812635 0.512001 -3.452945
						CHANNELS 3 Xrotation Yrotation Zrotation
						JOINT R_armLower0001_bind_JNT
						{
							OFFSET -15.265890 -6.552124 -0.058160
							CHANNELS 3 Xrotation Yrotation Zrotation
							JOINT R_hand0001_bind_JNT
							{
								OFFSET -14.746784 -6.369629 5.048937
								CHANNELS 3 Xrotation Yrotation Zrotation
								End Site
								{
									OFFSET 0.000000 0.000000 0.000000
								}
							}
						}
					}
				}
			}
		}
	}
	JOINT C_pelvis0001_bind_JNT
	{
		OFFSET -0.000000 0.000000 0.000000
		CHANNELS 3 Xrotation Yrotation Zrotation
		JOINT L_legUpper0001_bind_JNT
		{
			OFFSET 6.599999 -6.027000 0.539000
			CHANNELS 3 Xrotation Yrotation Zrotation
			JOINT L_legLower0001_bind_JNT
			{
				OFFSET -0.140713 -19.187443 0.040261
				CHANNELS 3 Xrotation Yrotation Zrotation
				JOINT L_foot0001_bind_JNT
				{
					OFFSET -0.132215 -18.028637 -1.138370
					CHANNELS 3 Xrotation Yrotation Zrotation
					JOINT L_foot0002_bind_JNT
					{
						OFFSET 0.007014 -4.693133 9.886524
						CHANNELS 3 Xrotation Yrotation Zrotation
						End Site
						{
							OFFSET 0.000000 0.000000 0.000000
						}
					}
				}
			}
		}
		JOINT R_legUpper0001_bind_JNT
		{
			OFFSET -6.599999 -6.027000 0.539000
			CHANNELS 3 Xrotation Yrotation Zrotation
			JOINT R_legLower0001_bind_JNT
			{
				OFFSET 0.140710 -19.187164 0.040550
				CHANNELS 3 Xrotation Yrotation Zrotation
				JOINT R_foot0001_bind_JNT
				{
					OFFSET 0.132215 -18.028633 -1.138362
					CHANNELS 3 Xrotation Yrotation Zrotation
					JOINT R_foot0002_bind_JNT
					{
						OFFSET -0.007014 -4.693128 9.886505
						CHANNELS 3 Xrotation Yrotation Zrotation
						End Site
						{
							OFFSET 0.000000 0.000000 0.000000
						}
					}
				}
			}
		}
	}
}
MOTION
Frames: 9
Frame Time: 0.033333
-54.907318 50.202785 165.314407 0.040628 -30.740675 -0.024291 7.234463 3.128285 -10.600553 -4.416437 2.374620 -1.917674 5.967159 2.660312 -3.717110 17.463778 2.661163 0.406318 0.180711 0.252019 -0.142415 -4.113462 4.747691 1.515529 6.027479 3.829178 6.430236 -18.312958 13.113838 -65.318153 -10.395987 11.134244 4.461674 -10.412831 -12.352332 -29.627611 2.208195 -4.032797 -10.858271 -9.225020 -7.733279 60.604691 -9.393167 -2.365050 25.128296 -1.802104 4.475590 15.556076 6.611531 -0.460075 -3.588814 -22.093603 -3.541145 -5.190661 25.645241 -5.907761 0.468857 -3.121918 8.178483 1.679996 -7.198960 0.063316 1.789067 -16.246660 -0.591728 -5.292458 28.914621 3.549068 -3.598751 1.202578 26.039841 5.837720 -13.311411 3.433025 -4.247398 
-55.115974 50.092514 166.836121 0.055495 -30.990931 -0.023954 7.777050 3.419737 -11.586326 -4.382966 2.294195 -2.099840 5.978860 2.710345 -3.705437 17.645666 2.708553 0.643645 0.126592 -0.135731 0.102688 -4.021060 4.947621 2.038295 6.326739 4.352898 6.845537 -17.320436 13.878231 -64.765717 -11.624533 12.116878 4.581762 -10.687089 -12.644514 -30.037344 2.403672 -5.665234 -11.188749 -9.649609 -7.128623 59.892773 -10.830789 -0.157547 26.202454 -0.929224 5.581651 15.947005 7.109796 -0.533905 -4.479111 -20.685255 -3.197026 -3.590525 19.002893 -6.105998 0.514901 -1.767118 9.186570 3.167966 -4.745580 0.330294 0.893330 -17.090820 -0.994364 -6.188635 32.096409 3.123356 -3.263648 3.414064 27.386103 7.647765 -12.219556 3.365008 -7.512736 
-55.120094 50.034885 168.174149 0.054814 -30.861944 -0.015588 8.111908 3.065822 -12.711597 -4.178751 2.379050 -2.253162 6.134686 2.604614 -3.975527 17.627943 2.878830 1.191039 0.119427 0.024967 -0.034745 -3.791031 5.010694 2.442926 6.447181 4.617006 7.489501 -16.821281 14.971407 -64.389549 -13.560723 12.723306 5.128558 -10.076097 -12.354829 -29.891392 2.242690 -7.023680 -11.311416 -10.384869 -7.349943 59.092220 -11.994507 1.371156 26.633137 0.214273 6.813504 16.364990 7.398058 -1.103615 -5.707519 -20.152725 -2.586000 -2.402730 17.369904 -7.003475 0.730431 -1.682899 10.625392 3.767198 -4.033461 0.425914 0.621018 -18.500673 -0.397108 -6.455534 37.008446 1.623658 -2.987047 5.906913 28.683992 8.323808 -10.282091 2.336901 -10.155265 
-54.939495 50.040882 169.103912 0.050185 -30.891083 -0.027441 8.644206 2.886990 -13.986338 -4.138471 2.421824 -2.307069 5.894970 2.565179 -3.887760 18.076826 3.082383 1.265866 -0.004590 0.041619 0.088694 -3.553535 5.071650 2.959755 6.571965 4.796194 7.946745 -15.940970 16.008766 -64.131317 -14.299500 13.682669 5.330051 -10.384802 -12.281252 -29.564386 2.056628 -8.304033 -11.858397 -10.425386 -8.309100 58.341778 -13.697708 3.409540 27.312195 1.082375 6.991520 15.919512 7.403891 -1.118613 -6.766176 -19.014587 -2.705601 -1.448677 15.738695 -6.974809 0.103258 -1.317307 10.610591 4.330853 -3.876379 0.700200 0.702699 -19.888239 -1.124109 -7.528147 42.219772 1.214429 -3.321219 8.022737 30.090704 9.679967 -8.001986 0.482765 -11.719013 
-54.767986 50.133034 169.688995 0.054918 -31.017729 -0.027054 9.157516 2.996955 -15.012389 -4.085487 2.181425 -2.472401 6.004361 2.347353 -3.802102 18.137278 3.507281 1.697555 0.146736 -0.026518 -0.226074 -3.473712 5.509665 3.262100 6.030463 4.367823 8.325036 -15.133890 17.554127 -64.101944 -15.764014 14.657747 6.335024 -9.544084 -11.760262 -29.913723 1.218120 -8.995707 -11.698339 -10.672641 -8.973337 57.283474 -15.654197 4.420364 27.411280 2.199497 7.361073 15.982660 7.473815 -0.911370 -7.623639 -17.970222 -2.507991 -0.858651 14.540613 -6.817717 0.112290 -1.296776 10.974874 4.660379 -3.568230 0.502239 0.610829 -21.165873 -1.481519 -8.502979 46.254452 0.842642 -4.428372 10.786767 29.604956 9.194416 -6.432514 -0.249171 -9.890634 
-54.549084 50.268864 170.300415 0.050011 -31.520864 -0.032282 9.286045 3.270176 -16.226152 -3.824760 2.118999 -2.365139 6.000529 2.066166 -3.583375 18.638803 3.968235 1.661283 0.020380 -0.052575 -0.134545 -3.209718 6.152033 3.112118 5.723945 4.072775 8.707049 -14.205097 18.504965 -65.102982 -17.135859 15.342040 6.797104 -9.255674 -11.654428 -29.571060 0.633742 -9.281520 -11.749300 -10.340618 -10.083990 55.924488 -17.463327 6.125813 28.339716 2.482271 7.566982 15.902693 7.658481 -0.633443 -9.121989 -17.432404 -2.105046 0.514115 13.994241 -6.864614 -0.110015 -1.706201 10.942964 4.840274 -3.206464 0.371725 1.234240 -23.296892 -2.308127 -9.600781 50.582462 0.843539 -5.013631 12.547174 28.809015 8.557569 -5.374324 -0.908111 -7.455171 
-54.276081 50.521420 170.969772 0.040457 -31.982513 -0.041127 9.720607 3.602130 -17.383368 -3.931905 1.895361 -2.185681 6.222321 2.084961 -3.343666 18.735521 4.529545 1.901916 0.064651 0.055068 -0.465600 -3.594872 6.812155 3.174033 5.383930 3.525194 8.744528 -13.186656 19.234156 -66.115746 -18.611223 16.373798 7.288843 -9.304970 -12.035241 -30.071842 0.052659 -9.810372 -11.275594 -10.434483 -10.541464 54.565109 -19.307066 7.081085 28.579741 2.808525 7.338645 16.144566 7.656145 -0.216507 -10.664207 -16.723158 -2.139230 1.733715 12.954661 -6.521186 -0.122925 -1.232371 11.112680 5.242683 -3.435261 0.291873 0.930365 -24.967688 -3.206624 -10.223073 54.015816 -0.025445 -6.176628 13.769876 27.648378 6.496178 -6.458721 -0.193764 -5.554523 
-54.077431 50.698631 171.724380 0.057769 -32.265186 -0.028019 9.767706 4.023417 -18.697266 -3.616637 1.731966 -2.174190 6.271752 1.819545 -3.156971 18.898874 5.092333 1.858232 0.116377 0.026760 -0.410564 -3.861107 7.679494 3.463788 5.290943 3.108087 8.925334 -12.887010 19.441120 -66.636810 -19.606186 16.579166 7.134419 -8.693127 -11.704168 -30.437893 0.098772 -10.087667 -10.735701 -10.010061 -11.292043 53.640785 -21.042273 8.166910 29.238535 3.185978 7.467455 15.858027 7.833025 0.579807 -12.854848 -15.898670 -2.153420 2.886982 12.112721 -6.472043 -0.202386 -1.415144 11.068232 5.587199 -3.621311 0.067118 1.406898 -26.935963 -3.915985 -11.598320 57.500847 -0.506248 -6.444726 14.972855 26.701748 4.397369 -9.618464 0.739035 -3.745586 
-53.811134 50.855354 172.175583 0.051387 -32.162422 -0.035397 10.094148 4.169714 -19.857372 -3.398793 1.475566 -1.940497 6.485663 1.621749 -2.725831 18.716938 5.472217 1.719557 0.016389 0.000341 -0.369572 -3.959551 8.501568 3.171069 5.050446 2.869449 8.970081 -12.988164 19.033432 -67.358315 -20.266642 16.949987 7.000557 -8.843214 -11.747228 -31.345146 -0.495328 -10.410657 -10.751350 -9.271447 -12.111937 53.261726 -22.002680 8.554114 29.292727 3.322437 6.717259 14.897839 7.788607 1.113036 -14.131079 -15.381751 -2.172209 3.498153 11.587603 -5.982334 -0.236305 -1.274477 10.176836 6.189251 -3.661963 0.322428 1.353676 -28.505526 -4.093747 -12.476711 59.378910 -1.004094 -7.117112 15.129049 25.973047 3.399863 -10.834297 1.522568 -2.823286 
